<?xml version="1.0" encoding="UTF-8"?>
<svg id="Layer_1" data-name="Layer 1" xmlns="http://www.w3.org/2000/svg" xmlns:xlink="http://www.w3.org/1999/xlink" viewBox="0 0 730.9 731">
  <defs>
    <style>
      .cls-1 { fill: #fff; }
      .cls-2 { fill: url(#linear-gradient); }
      .cls-2, .cls-3, .cls-4, .cls-5 { stroke: #000; stroke-miterlimit: 10; }
      .cls-3 { fill: url(#linear-gradient); }
      .cls-4 { fill: url(#linear-gradient); }
      .cls-5 { fill: url(#linear-gradient); }
    </style>
    <linearGradient id="linear-gradient" x1="145.52" y1="652.45" x2="556.73" y2="65.18" gradientUnits="userSpaceOnUse">
      <stop offset=".4" stop-color="#0f71ba"/>
      <stop offset=".94" stop-color="#0b2648"/>
    </linearGradient>
  </defs>
  <circle class="cls-1" cx="365.4" cy="365.5" r="365"/>
  <path class="cls-5" d="M112.77,351.68c66.65,11.53,135.82,49.9,217.68,120.76,66.58,57.64,125.4,94.82,185.08,117,20.62,7.66,41.53,13.67,63.37,18.12-23.12-9.34-45.93-21.5-68.09-36.33-50.18-33.58-99.19-82.04-149.85-148.14-64.47-84.13-119.84-144.94-180.52-168.25-28.19-10.83-58.13-13.79-91.53-9.06-22.24,3.15-46.97,9.86-74.81,20.32-7.95,28.14-12.6,57.66-13.52,88.12,38.03-6.99,73.34-9.26,112.19-2.54Z"/>
  <path class="cls-2" d="M157.75,134.39c46.11-3.08,86.09,5.11,122.26,25.04,31.7,17.47,60.62,44.27,88.42,81.92,27.58,37.37,51.21,81.43,70.67,119.61,54.65,107.15,112.54,205.11,209.95,234.26,50.87-62.73,81.35-142.66,81.35-229.72C730.4,163.92,566.98,.5,365.4,.5,243.59,.5,135.72,60.17,69.42,151.87c31.71-9.88,60.97-15.66,88.33-17.48Z"/>
  <path class="cls-4" d="M534.18,544.68c-47.08-49.2-82.96-115.94-112.9-174.63-19.1-37.45-42.22-80.61-68.95-116.82-26.04-35.28-52.86-60.24-81.98-76.28-57.25-31.55-127.65-31.09-218.77,2.04-11.85,19.89-21.86,41.01-29.8,63.11,66.63-22.74,118.2-24.23,165.82-5.94,65.06,24.99,122.7,87.93,189.23,174.75,49.31,64.34,96.77,111.34,145.1,143.69,22.55,15.09,45.35,27.12,68.57,36.13-19.69-12.03-38.42-27.36-56.33-46.06Z"/>
  <path class="cls-3" d="M508.56,608.18c-62-23.04-122.76-61.37-191.21-120.62-78.99-68.38-145.08-105.29-207.99-116.17-37.15-6.42-71.42-3.91-108.85,3.21,4.83,197.38,166.34,355.9,364.89,355.9,95.79,0,182.96-36.9,248.07-97.26-37.47-4.52-71.91-12.8-104.91-25.06Z"/>
</svg>